<?xml version="1.0" encoding="UTF-8" standalone="no"?>
<!DOCTYPE svg PUBLIC "-//W3C//DTD SVG 1.1//EN" "http://www.w3.org/Graphics/SVG/1.1/DTD/svg11.dtd">
<svg width="100%" height="100%" viewBox="0 0 512 512" version="1.1" xmlns="http://www.w3.org/2000/svg"
    xmlns:xlink="http://www.w3.org/1999/xlink" xml:space="preserve" xmlns:serif="http://www.serif.com/"
    style="fill-rule:evenodd;clip-rule:evenodd;stroke-linejoin:round;stroke-miterlimit:2;">
    <style>
        #light-mode {
            display: inline;
        }

        #dark-mode {
            display: none;
        }

        @media (prefers-color-scheme: dark) {
            #light-mode {
                display: none;
            }

            #dark-mode {
                display: inline;
            }
        }
    </style>

    <g id="light-mode">
        <g transform="matrix(2.955176,-0,-0,2.955176,-16.259072,-7.925939)">
            <circle cx="92.13" cy="89.31" r="77.913" style="fill:rgb(15,16,31);" />
        </g>
        <g transform="matrix(-3.974554,-0,0,-3.854202,626.33304,581.96601)">
            <path d="M93.176,24.835L140.467,119.417L45.885,119.417L93.176,24.835Z" style="fill:white;fill-opacity:0;" />
            <path
                d="M93.176,24.835L140.467,119.417L45.885,119.417L93.176,24.835ZM93.176,56.445L68.933,104.931L117.419,104.931L93.176,56.445Z"
                style="fill:white;" />
        </g>
    </g>
    <g id="dark-mode" transform="matrix(1.134758,0,0,1.080512,40.604335,56.062718)">
        <path
            d="M220.156,310.23C220.083,310.323 201.297,345.221 191.02,367.188C189.792,369.814 188.717,366.978 173.084,335.703C165.877,321.286 86.687,168.578 62.769,121.363C38.608,73.668 37.949,74.107 13.77,26.362C2.706,4.515 0.074,2.825 3.408,2.158C3.62,2.116 358.195,2.152 370.5,2.14C371.059,2.14 377.098,2.134 377.478,2.522C379.109,4.19 359.425,38.653 336.91,83.7C329.952,97.62 322.357,110.468 287.219,180.356C283.796,187.164 283.391,186.831 279.942,193.716C263.954,225.636 229.324,291.524 220.156,310.23L231.844,162.77C233.035,161.26 232.934,161.287 233.769,159.638C262.208,103.493 262.805,103.499 269.776,89.641C284.354,60.657 285.277,60.686 284.631,59.392C284.015,58.158 283.636,58.89 277.5,58.903C111.885,59.254 111.902,58.69 97.504,58.894C92.807,58.961 96.024,61.526 99.909,69.3C109.239,87.967 135.83,138.917 141.221,149.642C164.553,196.058 165.197,195.614 167.219,199.644C168.934,203.063 187.555,240.175 188.841,242.292C188.999,242.552 190.075,244.324 192.075,240.292C196.258,231.857 196.492,232.082 200.769,223.638C223.793,178.184 224.184,178.414 231.844,162.77L220.156,310.23Z"
            style="fill:white;fill-opacity:1;" />
    </g>
</svg>